<svg width="1600" height="900" viewBox="0 0 1600 900" xmlns="http://www.w3.org/2000/svg">
<defs><linearGradient id="g" x1="0" y1="0" x2="1600" y2="900"><stop stop-color="#0B132B"/><stop offset="1" stop-color="#1C5D74"/></linearGradient><pattern id="p" width="45" height="45" patternUnits="userSpaceOnUse"><path d="M45 0H0V45" fill="none" stroke="#8CF7E1" stroke-opacity=".08"/></pattern></defs>
<rect width="1600" height="900" fill="url(#g)"/><rect width="1600" height="900" fill="url(#p)"/>
<g fill="none" stroke="#6DEAD0" stroke-width="4" opacity=".75"><path d="M130 660C310 500 435 520 560 350C680 185 830 225 930 365C1050 535 1240 480 1470 230"/><path d="M100 720C310 580 460 650 620 470C760 310 910 360 1030 520C1160 690 1330 610 1510 430" opacity=".35"/></g>
<g fill="#75F1D8"><circle cx="560" cy="350" r="18"/><circle cx="930" cy="365" r="18"/><circle cx="1470" cy="230" r="18"/></g>
<path d="M298 245L472 165L650 260L612 465L418 536L255 410Z" fill="#65E2C9" fill-opacity=".12" stroke="#75F1D8" stroke-width="4"/>
<path d="M306 250L612 465M472 165L418 536M650 260L255 410" stroke="#75F1D8" stroke-opacity=".32" stroke-width="3"/>
<text x="90" y="120" fill="#DFFFF8" font-family="Arial" font-size="34" font-weight="700" letter-spacing="7">GEOSPATIAL AI</text>
<text x="90" y="790" fill="white" font-family="Arial" font-size="82" font-weight="800">Mine Opening Detection</text>
<text x="95" y="848" fill="#A9F6E6" font-family="Arial" font-size="30">ArcGIS Pro • U-Net • Semantic segmentation</text>
</svg>
